<svg width="186" height="186" viewBox="0 0 186 186" fill="none" xmlns="http://www.w3.org/2000/svg">
<path d="M127.153 54.7784C118.278 54.7784 111.058 47.5578 111.058 38.6832C111.058 38.1245 110.605 37.6719 110.046 37.6719C109.488 37.6719 109.035 38.1245 109.035 38.6832C109.035 47.5586 101.814 54.7784 92.9398 54.7784C92.3811 54.7784 91.9285 55.231 91.9285 55.7898C91.9285 56.3485 92.3811 56.8011 92.9398 56.8011C101.815 56.8011 109.035 64.0217 109.035 72.8959C109.035 73.4546 109.488 73.9073 110.046 73.9073C110.605 73.9073 111.058 73.4546 111.058 72.8959C111.058 64.021 118.278 56.8011 127.153 56.8011C127.711 56.8011 128.164 56.3485 128.164 55.7898C128.164 55.231 127.711 54.7784 127.153 54.7784Z" fill="#F29F26"/>
<path d="M108.229 55.7892C110.802 53.5415 112.66 50.4951 113.399 47.0345C111.914 44.5983 111.057 41.7386 111.057 38.6823C111.057 38.1235 110.605 37.6709 110.046 37.6709C109.487 37.6709 109.034 38.1235 109.034 38.6823C109.034 44.4029 106.032 49.4328 101.522 52.2875C100.913 52.6729 100.275 53.0188 99.6146 53.3218C99.5903 53.3327 99.5659 53.3436 99.542 53.3548C98.8946 53.6476 98.2247 53.8986 97.5356 54.105C97.488 54.1192 97.4397 54.1322 97.3921 54.1457C97.1 54.2303 96.8043 54.3059 96.5053 54.3738C96.4454 54.3876 96.3858 54.4025 96.3262 54.4156C95.9905 54.4879 95.6512 54.5504 95.3083 54.6012C95.2491 54.6096 95.1895 54.6158 95.1303 54.6238C94.848 54.6626 94.5625 54.6935 94.2759 54.7168C94.1774 54.7247 94.079 54.7331 93.9801 54.7393C93.6488 54.7607 93.315 54.7749 92.9782 54.7756C92.9651 54.7756 92.9524 54.7763 92.9393 54.7763C92.3806 54.7763 91.928 55.229 91.928 55.7877C91.928 56.3464 92.3806 56.7991 92.9393 56.7991C92.9524 56.7991 92.9651 56.7998 92.9782 56.7998C93.315 56.8005 93.6481 56.8147 93.9801 56.8361C94.079 56.8427 94.1778 56.8507 94.2759 56.8587C94.5628 56.8826 94.848 56.9131 95.1303 56.9517C95.1895 56.9596 95.2491 56.9658 95.3083 56.9742C95.6512 57.025 95.9905 57.0875 96.3262 57.1598C96.3865 57.1729 96.4457 57.1878 96.5053 57.2016C96.8039 57.2695 97.0993 57.3451 97.3913 57.4297C97.4397 57.4435 97.4883 57.4566 97.5363 57.4711C98.2254 57.6775 98.895 57.9285 99.5423 58.2213C99.5667 58.2322 99.591 58.2431 99.615 58.254C100.276 58.557 100.913 58.9021 101.522 59.2883C106.032 62.1437 109.035 67.1729 109.035 72.8935C109.035 73.4522 109.487 73.9049 110.046 73.9049C110.605 73.9049 111.058 73.4522 111.058 72.8935C111.058 69.8372 111.914 66.9778 113.399 64.5413C112.66 61.0836 110.803 58.0368 108.229 55.7892Z" fill="#EF8229"/>
<path d="M138.752 97.4125C142.525 97.4125 145.584 94.3536 145.584 90.5803C145.584 86.8069 142.525 83.748 138.752 83.748C134.979 83.748 131.92 86.8069 131.92 90.5803C131.92 94.3536 134.979 97.4125 138.752 97.4125Z" fill="#F29F26"/>
<path d="M14.9511 176.713C18.7244 176.713 21.7833 173.654 21.7833 169.881C21.7833 166.107 18.7244 163.048 14.9511 163.048C11.1778 163.048 8.1189 166.107 8.1189 169.881C8.1189 173.654 11.1778 176.713 14.9511 176.713Z" fill="#F29F26"/>
<path d="M106.129 133.753C74.9598 123.443 52.4081 94.031 52.4081 59.4514C52.4081 42.1418 57.951 25.7357 68.436 12.0095C69.8082 10.2131 69.7809 7.71441 68.371 5.94741C66.9611 4.18078 64.5297 3.5999 62.4746 4.54152C46.5088 11.8435 32.9711 23.4848 23.3257 38.2053C13.4237 53.317 8.19067 70.8933 8.19067 89.0348C8.19067 140.243 49.8517 181.904 101.06 181.904C119.202 181.904 136.778 176.67 151.89 166.769C166.61 157.123 178.251 143.586 185.553 127.62C186.494 125.564 185.914 123.133 184.147 121.722C182.381 120.313 179.881 120.286 178.085 121.658C164.359 132.143 147.954 137.686 130.644 137.686C125.855 137.686 121.165 137.253 116.611 136.426" fill="#EDE21B"/>
<path d="M160.376 158.326C145.264 168.228 127.688 173.461 109.547 173.461C58.3385 173.461 16.6775 131.8 16.6775 80.592C16.6775 62.4505 21.9109 44.8739 31.8125 29.7625C34.2781 25.9996 36.9991 22.4399 39.9485 19.1006C33.6031 24.6493 28.005 31.0638 23.3252 38.2062C13.4232 53.318 8.19019 70.8942 8.19019 89.0357C8.19019 140.244 49.8512 181.905 101.059 181.905C119.201 181.905 136.777 176.671 151.889 166.77C158.896 162.178 165.204 156.703 170.68 150.505C167.445 153.333 164.005 155.949 160.376 158.326Z" fill="#EAC71C"/>
<path d="M110.046 98.698C112.287 98.698 114.104 96.881 114.104 94.6397C114.104 92.3985 112.287 90.5815 110.046 90.5815C107.804 90.5815 105.987 92.3985 105.987 94.6397C105.987 96.881 107.804 98.698 110.046 98.698Z" fill="#EDE21B"/>
<path d="M4.05821 147.423C6.29949 147.423 8.11641 145.606 8.11641 143.365C8.11641 141.124 6.29949 139.307 4.05821 139.307C1.81692 139.307 0 141.124 0 143.365C0 145.606 1.81692 147.423 4.05821 147.423Z" fill="#EDE21B"/>
<path d="M136.069 35.9768C138.31 35.9768 140.127 34.1598 140.127 31.9186C140.127 29.6773 138.31 27.8604 136.069 27.8604C133.828 27.8604 132.011 29.6773 132.011 31.9186C132.011 34.1598 133.828 35.9768 136.069 35.9768Z" fill="#EDE21B"/>
</svg>
