<svg width="177" height="165" viewBox="0 0 177 165" fill="none" xmlns="http://www.w3.org/2000/svg">
<path d="M145.017 97.9424C145.017 93.2563 143.702 88.6643 141.22 84.6891C138.739 80.7139 135.192 77.515 130.982 75.4567C126.772 73.3984 122.069 72.5632 117.408 73.0462C112.747 73.5292 108.315 75.311 104.616 78.1888C101.468 74.5465 97.4067 71.809 92.8492 70.2582C88.2917 68.7074 83.4032 68.3994 78.6871 69.3659C73.971 70.3324 69.5977 72.5385 66.0176 75.757C62.4375 78.9754 59.78 83.09 58.3186 87.6769C55.8735 85.5033 52.937 83.9562 49.7617 83.1685C46.5863 82.3809 43.2672 82.3763 40.0897 83.1552C36.9122 83.9341 33.9715 85.4732 31.5204 87.6401C29.0693 89.8069 27.1812 92.5367 26.0186 95.5947C24.8559 98.6527 24.4534 101.947 24.8457 105.195C25.238 108.443 26.4134 111.547 28.2708 114.241C30.1282 116.934 32.6119 119.136 35.5085 120.656C38.405 122.177 41.6276 122.972 44.8992 122.972C45.2131 122.972 45.5251 122.964 45.8355 122.95C46.1561 122.963 46.478 122.972 46.802 122.972H122.622C128.078 122.972 133.338 120.94 137.378 117.274C141.418 113.608 143.948 108.569 144.476 103.139C144.836 101.43 145.018 99.6886 145.017 97.9424V97.9424Z" fill="#F8F8FF"/>
<path d="M145.869 94.8779C145.869 90.1918 144.553 85.5999 142.072 81.6246C139.59 77.6494 136.043 74.4506 131.833 72.3922C127.623 70.3339 122.92 69.4987 118.259 69.9817C113.598 70.4647 109.166 72.2465 105.468 75.1244C102.32 71.482 98.258 68.7445 93.7005 67.1937C89.143 65.6429 84.2545 65.3349 79.5384 66.3014C74.8223 67.2679 70.4491 69.474 66.869 72.6925C63.2889 75.911 60.6313 80.0255 59.1699 84.6125C56.7248 82.4389 53.7883 80.8917 50.613 80.1041C47.4377 79.3164 44.1185 79.3119 40.941 80.0908C37.7635 80.8697 34.8228 82.4087 32.3717 84.5756C29.9206 86.7425 28.0325 89.4723 26.8699 92.5303C25.7072 95.5883 25.3047 98.8829 25.697 102.131C26.0894 105.379 27.2647 108.483 29.1221 111.176C30.9795 113.869 33.4632 116.071 36.3598 117.592C39.2563 119.113 42.479 119.908 45.7505 119.907C46.0644 119.907 46.3764 119.899 46.6868 119.885C47.0074 119.899 47.3294 119.907 47.6533 119.907H123.474C128.929 119.907 134.189 117.876 138.229 114.21C142.269 110.543 144.799 105.504 145.327 100.074C145.688 98.3657 145.869 96.6241 145.869 94.8779V94.8779Z" stroke="#3F3D56" stroke-miterlimit="10"/>
<path d="M46.8051 78.7024C55.5919 78.7024 62.7151 71.5792 62.7151 62.7924C62.7151 54.0055 55.5919 46.8823 46.8051 46.8823C38.0182 46.8823 30.895 54.0055 30.895 62.7924C30.895 71.5792 38.0182 78.7024 46.8051 78.7024Z" fill="#E1C319"/>
<path d="M46.857 28.1025H46.857C44.7034 28.1025 42.9575 29.8484 42.9575 32.0021V39.9259C42.9575 42.0795 44.7034 43.8254 46.857 43.8254H46.857C49.0107 43.8254 50.7566 42.0795 50.7566 39.9259V32.0021C50.7566 29.8484 49.0107 28.1025 46.857 28.1025Z" fill="#E1C319"/>
<path d="M76.8736 45.4928L76.8736 45.4928C75.7968 43.6277 73.4119 42.9887 71.5467 44.0655L64.6845 48.0274C62.8194 49.1042 62.1804 51.4891 63.2572 53.3542L63.2572 53.3542C64.334 55.2194 66.7189 55.8584 68.584 54.7816L75.4463 50.8196C77.3114 49.7428 77.9504 47.3579 76.8736 45.4928Z" fill="#E1C319"/>
<path d="M16.7365 80.0926L16.7365 80.0926C17.8133 81.9578 20.1983 82.5968 22.0634 81.52L28.9256 77.5581C30.7907 76.4812 31.4297 74.0963 30.3529 72.2312L30.3529 72.2312C29.2761 70.3661 26.8912 69.7271 25.0261 70.8039L18.1638 74.7658C16.2987 75.8426 15.6597 78.2275 16.7365 80.0926Z" fill="#E1C319"/>
<path d="M16.7884 45.4032L16.7884 45.4032C15.7116 47.2683 16.3506 49.6532 18.2157 50.73L25.0779 54.692C26.9431 55.7688 29.328 55.1297 30.4048 53.2646L30.4048 53.2646C31.4816 51.3995 30.8426 49.0146 28.9775 47.9378L22.1152 43.9759C20.2501 42.899 17.8652 43.5381 16.7884 45.4032Z" fill="#E1C319"/>
<path d="M48.6781 76.8299C57.465 76.8299 64.5882 69.7067 64.5882 60.9198C64.5882 52.1329 57.465 45.0098 48.6781 45.0098C39.8912 45.0098 32.7681 52.1329 32.7681 60.9198C32.7681 69.7067 39.8912 76.8299 48.6781 76.8299Z" stroke="#3F3D56" stroke-miterlimit="10"/>
<path d="M48.7298 26.2295H48.7298C46.5762 26.2295 44.8303 27.9754 44.8303 30.129V38.0528C44.8303 40.2065 46.5762 41.9524 48.7298 41.9524H48.7298C50.8835 41.9524 52.6294 40.2065 52.6294 38.0528V30.129C52.6294 27.9754 50.8835 26.2295 48.7298 26.2295Z" stroke="#3F3D56" stroke-miterlimit="10"/>
<path d="M78.7464 43.6203L78.7464 43.6202C77.6696 41.7551 75.2847 41.1161 73.4195 42.1929L66.5573 46.1548C64.6922 47.2317 64.0532 49.6166 65.13 51.4817L65.13 51.4817C66.2068 53.3468 68.5917 53.9858 70.4568 52.909L77.3191 48.9471C79.1842 47.8703 79.8232 45.4854 78.7464 43.6203Z" stroke="#3F3D56" stroke-miterlimit="10"/>
<path d="M18.6093 78.2196L18.6093 78.2196C19.6861 80.0847 22.0711 80.7237 23.9362 79.6469L30.7984 75.685C32.6635 74.6082 33.3026 72.2233 32.2257 70.3582L32.2257 70.3582C31.1489 68.493 28.764 67.854 26.8989 68.9308L20.0366 72.8928C18.1715 73.9696 17.5325 76.3545 18.6093 78.2196Z" stroke="#3F3D56" stroke-miterlimit="10"/>
<path d="M18.6614 43.5292L18.6614 43.5292C17.5846 45.3943 18.2236 47.7792 20.0888 48.856L26.951 52.8179C28.8161 53.8947 31.201 53.2557 32.2778 51.3906L32.2778 51.3906C33.3547 49.5255 32.7156 47.1406 30.8505 46.0638L23.9883 42.1018C22.1232 41.025 19.7383 41.664 18.6614 43.5292Z" stroke="#3F3D56" stroke-miterlimit="10"/>
<path d="M132.71 90.3584L129.97 95.9432C129.97 95.9432 125.017 95.311 127.02 101.844C127.02 101.844 126.493 106.797 125.439 107.85C124.385 108.904 126.282 115.859 130.075 113.857C132.209 112.731 132.343 111.438 132.051 110.522C131.598 109.156 131.51 107.696 131.795 106.286C132.175 104.504 132.861 102.224 134.08 100.264C136.503 96.3647 138.821 92.5713 138.821 92.5713L132.71 90.3584Z" fill="#A0616A"/>
<path d="M125.86 56.006C125.86 56.006 119.854 54.5308 117.852 55.5845C115.85 56.6383 109.949 56.7436 109.949 56.7436C109.949 56.7436 104.996 64.752 106.156 68.8616C107.315 72.9712 112.162 75.5001 112.162 75.5001L128.495 75.6055L131.129 64.8574C131.129 64.8574 129.865 57.4813 128.811 57.0598C127.757 56.6383 125.86 56.006 125.86 56.006Z" fill="#3F3D56"/>
<path d="M120.487 28.1869C125.433 28.1869 129.443 24.1769 129.443 19.2302C129.443 14.2835 125.433 10.2734 120.487 10.2734C115.54 10.2734 111.53 14.2835 111.53 19.2302C111.53 24.1769 115.54 28.1869 120.487 28.1869Z" fill="#2F2E41"/>
<path d="M114.902 26.9229C114.902 26.9229 115.955 31.3485 114.375 31.8754C112.794 32.4023 111.424 34.5097 111.424 34.5097L113.743 38.4086L121.646 40.4107L124.069 38.0925L125.86 33.1399L124.069 31.8754C124.069 31.8754 122.383 32.4023 122.278 30.7163C122.227 29.4509 122.263 28.1835 122.383 26.9229L114.902 26.9229Z" fill="#A0616A"/>
<path opacity="0.1" d="M114.902 26.9229C114.902 26.9229 115.955 31.3485 114.375 31.8754C112.794 32.4023 111.424 34.5097 111.424 34.5097L113.743 38.4086L121.646 40.4107L124.069 38.0925L125.86 33.1399L124.069 31.8754C124.069 31.8754 122.383 32.4023 122.278 30.7163C122.227 29.4509 122.263 28.1835 122.383 26.9229L114.902 26.9229Z" fill="black"/>
<path d="M118.959 29.8204C122.509 29.8204 125.386 26.9426 125.386 23.3926C125.386 19.8427 122.509 16.9648 118.959 16.9648C115.409 16.9648 112.531 19.8427 112.531 23.3926C112.531 26.9426 115.409 29.8204 118.959 29.8204Z" fill="#A0616A"/>
<path d="M118.59 38.0926L112.478 32.5078C112.478 32.5078 109.738 34.826 109.422 34.826C109.106 34.826 104.997 36.0905 104.891 36.6174C104.786 37.1443 108.474 42.7291 108.474 42.7291C108.474 42.7291 107.631 46.8386 108.474 48.63C109.317 50.4213 108.685 58.1136 108.685 58.1136C108.685 58.1136 114.269 56.1115 117.22 57.0599C120.17 58.0082 128.811 57.0599 128.811 57.0599C128.811 57.0599 130.075 48.9461 129.549 47.8924C129.022 46.8386 128.916 40.8323 128.916 40.8323L133.447 35.8798C133.447 35.8798 132.499 32.0863 128.916 31.8756C125.334 31.6648 123.121 31.4541 123.121 31.4541L118.59 38.0926Z" fill="#2F2E41"/>
<path d="M111.424 64.0139C111.424 64.0139 99.6223 58.6399 94.8805 56.1109C90.1387 53.5819 82.8679 55.5841 85.1861 61.2742C87.5043 66.9644 100.465 72.5492 100.465 72.5492C100.465 72.5492 104.68 75.7104 107.209 75.605C109.738 75.4997 113.374 75.5523 113.374 75.5523L111.424 64.0139Z" fill="#3F3D56"/>
<path d="M129.654 64.752C129.654 64.752 150.834 64.9627 149.464 72.8657C148.094 80.7687 139.98 93.9404 138.505 94.2565C137.03 94.5727 131.656 92.2545 131.656 91.5168C131.656 90.7792 136.819 77.186 136.819 77.186L124.174 73.2872L129.654 64.752Z" fill="#3F3D56"/>
<path d="M133.658 41.1484C133.658 41.1484 134.923 53.2664 134.29 55.1631C133.658 57.0598 131.445 62.2232 128.6 64.7521C125.755 67.2811 121.751 80.0313 119.538 73.9196C117.325 67.808 123.121 64.436 123.121 64.436L128.93 56.2624L128.985 42.9607L133.658 41.1484Z" fill="#A0616A"/>
<path d="M109.949 66.5435C109.949 66.5435 120.381 70.2315 121.54 69.7047C122.699 69.1778 125.228 71.0745 125.228 71.0745C126.397 70.8243 127.603 70.8072 128.779 71.0242C129.954 71.2412 131.075 71.688 132.077 72.339C135.449 74.5519 136.187 77.0808 135.449 77.1862C134.712 77.2916 132.077 76.1325 132.077 76.1325C132.077 76.1325 128.073 75.2895 125.65 76.0271C123.226 76.7647 120.067 75.2096 120.067 75.2096L107.209 72.339L109.949 66.5435Z" fill="#A0616A"/>
<path opacity="0.1" d="M109.949 66.5435C109.949 66.5435 120.381 70.2315 121.54 69.7047C122.699 69.1778 125.228 71.0745 125.228 71.0745C126.397 70.8243 127.603 70.8072 128.779 71.0242C129.954 71.2412 131.075 71.688 132.077 72.339C135.449 74.5519 136.187 77.0808 135.449 77.1862C134.712 77.2916 132.077 76.1325 132.077 76.1325C132.077 76.1325 128.073 75.2895 125.65 76.0271C123.226 76.7647 120.067 75.2096 120.067 75.2096L107.209 72.339L109.949 66.5435Z" fill="black"/>
<path d="M104.891 45.6792C104.891 45.6792 104.996 58.7455 106.577 60.3261C108.158 61.9067 109.844 64.0142 111.424 64.9626C113.005 65.9109 113.848 68.1238 113.848 68.1238C113.848 68.1238 121.435 79.188 121.54 74.1301C121.646 69.0722 117.641 65.068 117.641 65.068L116.858 64.3216C115.143 62.7082 113.593 60.9287 112.23 59.0092C111.918 58.5515 111.54 58.1429 111.108 57.7972C109.738 56.7434 109.422 45.1523 109.422 45.1523L104.891 45.6792Z" fill="#A0616A"/>
<path d="M131.234 34.6152L133.447 35.8797C133.447 35.8797 134.29 41.4645 134.712 42.2021C135.133 42.9398 129.548 44.8365 128.705 44.3096C127.862 43.7827 127.441 38.6194 127.441 38.6194L131.234 34.6152Z" fill="#2F2E41"/>
<path d="M106.261 36.5117H104.891C104.891 36.5117 103.416 38.0923 103.521 41.4643C103.627 44.8362 102.257 46.9437 103.1 47.2598C103.943 47.5759 108.148 45.9027 108.1 46.3705C108.052 46.8383 110.265 45.9953 110.265 45.9953L108.79 40.4105L106.261 36.5117Z" fill="#2F2E41"/>
<path opacity="0.1" d="M95.6709 58.1133C95.6709 58.1133 102.099 60.853 103.89 61.2745C105.681 61.696 111.471 66.6281 111.471 66.6281L107.519 72.6293C107.519 72.6293 103.469 72.128 101.256 71.7065C99.0429 71.285 85.8712 62.539 88.084 61.0637C90.2969 59.5885 95.6709 58.1133 95.6709 58.1133Z" fill="black"/>
<path d="M94.3538 58.1133C94.3538 58.1133 100.782 60.853 102.573 61.2745C104.364 61.696 111.424 66.5432 111.424 66.5432L107.947 73.2871C107.947 73.2871 102.151 72.128 99.9386 71.7065C97.7257 71.285 84.554 62.539 86.7669 61.0637C88.9797 59.5885 94.3538 58.1133 94.3538 58.1133Z" fill="#3F3D56"/>
<path d="M122.225 22.1284C127.172 22.1284 131.182 18.1183 131.182 13.1716C131.182 8.22492 127.172 4.21484 122.225 4.21484C117.278 4.21484 113.268 8.22492 113.268 13.1716C113.268 18.1183 117.278 22.1284 122.225 22.1284Z" fill="#2F2E41"/>
<path d="M124.754 8.42989C127.082 8.42989 128.969 6.54279 128.969 4.21494C128.969 1.88709 127.082 0 124.754 0C122.426 0 120.539 1.88709 120.539 4.21494C120.539 6.54279 122.426 8.42989 124.754 8.42989Z" fill="#2F2E41"/>
<path d="M14 122.95H164" stroke="#3F3D56" stroke-miterlimit="10"/>
<path d="M22.2188 152.678C21.293 153.885 20.0098 154.799 18.3691 155.42C16.7285 156.041 14.8652 156.352 12.7793 156.352C10.6348 156.352 8.73633 155.865 7.08398 154.893C5.43164 153.92 4.1543 152.531 3.25195 150.727C2.36133 148.91 1.89844 146.795 1.86328 144.381V142.377C1.86328 138.51 2.78906 135.492 4.64062 133.324C6.49219 131.145 9.07617 130.055 12.3926 130.055C15.2402 130.055 17.502 130.758 19.1777 132.164C20.8535 133.57 21.8613 135.598 22.2012 138.246H17.8418C17.3496 135.164 15.5625 133.623 12.4805 133.623C10.4883 133.623 8.9707 134.344 7.92773 135.785C6.89648 137.215 6.36328 139.318 6.32812 142.096V144.064C6.32812 146.83 6.9082 148.98 8.06836 150.516C9.24023 152.039 10.8633 152.801 12.9375 152.801C15.2109 152.801 16.8281 152.285 17.7891 151.254V146.244H12.5156V142.869H22.2188V152.678ZM25.8926 146.314C25.8926 144.451 26.2617 142.775 27 141.287C27.7383 139.787 28.7754 138.639 30.1113 137.842C31.4473 137.033 32.9824 136.629 34.7168 136.629C37.2832 136.629 39.3633 137.455 40.957 139.107C42.5625 140.76 43.4297 142.951 43.5586 145.682L43.5762 146.684C43.5762 148.559 43.2129 150.234 42.4863 151.711C41.7715 153.188 40.7402 154.33 39.3926 155.139C38.0566 155.947 36.5098 156.352 34.752 156.352C32.0684 156.352 29.918 155.461 28.3008 153.68C26.6953 151.887 25.8926 149.502 25.8926 146.525V146.314ZM30.1641 146.684C30.1641 148.641 30.5684 150.176 31.377 151.289C32.1855 152.391 33.3105 152.941 34.752 152.941C36.1934 152.941 37.3125 152.379 38.1094 151.254C38.918 150.129 39.3223 148.482 39.3223 146.314C39.3223 144.393 38.9062 142.869 38.0742 141.744C37.2539 140.619 36.1348 140.057 34.7168 140.057C33.3223 140.057 32.2148 140.613 31.3945 141.727C30.5742 142.828 30.1641 144.48 30.1641 146.684Z" fill="#222222"/>
<path d="M52.9629 149.092L53.7539 153.064L54.7207 149.268L60.2754 130.406H62.2266L67.7109 149.268L68.6602 153.1L69.5039 149.092L74.127 130.406H76.3418L69.7852 156H67.7109L61.9102 135.979L61.2598 133.447L60.627 135.979L54.6855 156H52.6113L46.0723 130.406H48.2871L52.9629 149.092ZM86.8184 156.352C85.2012 156.352 83.7363 155.953 82.4238 155.156C81.123 154.359 80.1094 153.252 79.3828 151.834C78.6562 150.404 78.293 148.805 78.293 147.035V146.279C78.293 144.451 78.6445 142.805 79.3477 141.34C80.0625 139.875 81.0527 138.727 82.3184 137.895C83.584 137.051 84.9551 136.629 86.4316 136.629C88.7402 136.629 90.5684 137.42 91.916 139.002C93.2754 140.572 93.9551 142.723 93.9551 145.453V146.631H80.3848V147.035C80.3848 149.191 81 150.99 82.2305 152.432C83.4727 153.861 85.0312 154.576 86.9062 154.576C88.0312 154.576 89.0215 154.371 89.877 153.961C90.7441 153.551 91.5293 152.895 92.2324 151.992L93.5508 152.994C92.0039 155.232 89.7598 156.352 86.8184 156.352ZM86.4316 138.422C84.8496 138.422 83.5137 139.002 82.4238 140.162C81.3457 141.322 80.6895 142.881 80.4551 144.838H91.8633V144.609C91.8047 142.781 91.2832 141.293 90.2988 140.145C89.3145 138.996 88.0254 138.422 86.4316 138.422ZM110.057 156C109.846 155.402 109.711 154.518 109.652 153.346C108.914 154.307 107.971 155.051 106.822 155.578C105.686 156.094 104.479 156.352 103.201 156.352C101.373 156.352 99.8906 155.842 98.7539 154.822C97.6289 153.803 97.0664 152.514 97.0664 150.955C97.0664 149.104 97.834 147.639 99.3691 146.561C100.916 145.482 103.066 144.943 105.82 144.943H109.635V142.781C109.635 141.422 109.213 140.355 108.369 139.582C107.537 138.797 106.318 138.404 104.713 138.404C103.248 138.404 102.035 138.779 101.074 139.529C100.113 140.279 99.6328 141.182 99.6328 142.236L97.5234 142.219C97.5234 140.707 98.2266 139.4 99.6328 138.299C101.039 137.186 102.768 136.629 104.818 136.629C106.939 136.629 108.609 137.162 109.828 138.229C111.059 139.283 111.691 140.76 111.727 142.658V151.658C111.727 153.498 111.92 154.875 112.307 155.789V156H110.057ZM103.447 154.488C104.854 154.488 106.107 154.148 107.209 153.469C108.322 152.789 109.131 151.881 109.635 150.744V146.561H105.873C103.775 146.584 102.135 146.971 100.951 147.721C99.7676 148.459 99.1758 149.479 99.1758 150.779C99.1758 151.846 99.5684 152.73 100.354 153.434C101.15 154.137 102.182 154.488 103.447 154.488ZM120.621 132.111V136.98H124.559V138.703H120.621V151.377C120.621 152.432 120.809 153.217 121.184 153.732C121.57 154.248 122.209 154.506 123.1 154.506C123.451 154.506 124.02 154.447 124.805 154.33L124.893 156.053C124.342 156.252 123.592 156.352 122.643 156.352C121.201 156.352 120.152 155.936 119.496 155.104C118.84 154.26 118.512 153.023 118.512 151.395V138.703H115.014V136.98H118.512V132.111H120.621ZM131.01 140.197C131.701 139.061 132.586 138.182 133.664 137.561C134.742 136.939 135.92 136.629 137.197 136.629C139.236 136.629 140.754 137.203 141.75 138.352C142.746 139.5 143.25 141.223 143.262 143.52V156H141.17V143.502C141.158 141.803 140.795 140.537 140.08 139.705C139.377 138.873 138.246 138.457 136.688 138.457C135.387 138.457 134.232 138.867 133.225 139.688C132.229 140.496 131.49 141.592 131.01 142.975V156H128.918V129H131.01V140.197ZM156.041 156.352C154.424 156.352 152.959 155.953 151.646 155.156C150.346 154.359 149.332 153.252 148.605 151.834C147.879 150.404 147.516 148.805 147.516 147.035V146.279C147.516 144.451 147.867 142.805 148.57 141.34C149.285 139.875 150.275 138.727 151.541 137.895C152.807 137.051 154.178 136.629 155.654 136.629C157.963 136.629 159.791 137.42 161.139 139.002C162.498 140.572 163.178 142.723 163.178 145.453V146.631H149.607V147.035C149.607 149.191 150.223 150.99 151.453 152.432C152.695 153.861 154.254 154.576 156.129 154.576C157.254 154.576 158.244 154.371 159.1 153.961C159.967 153.551 160.752 152.895 161.455 151.992L162.773 152.994C161.227 155.232 158.982 156.352 156.041 156.352ZM155.654 138.422C154.072 138.422 152.736 139.002 151.646 140.162C150.568 141.322 149.912 142.881 149.678 144.838H161.086V144.609C161.027 142.781 160.506 141.293 159.521 140.145C158.537 138.996 157.248 138.422 155.654 138.422ZM176.062 138.773C175.617 138.691 175.143 138.65 174.639 138.65C173.326 138.65 172.213 139.02 171.299 139.758C170.396 140.484 169.752 141.545 169.365 142.939V156H167.273V136.98H169.33L169.365 140.004C170.479 137.754 172.266 136.629 174.727 136.629C175.312 136.629 175.775 136.705 176.115 136.857L176.062 138.773Z" fill="#F0F0F0"/>
</svg>
