<svg width="881" height="723" viewBox="0 0 881 723" fill="none" xmlns="http://www.w3.org/2000/svg">
<g clip-path="url(#clip0)">
<path d="M248.944 349.002C237.646 345.029 231.661 332.682 235.6 321.481C235.848 320.776 235.473 320.002 234.762 319.752C234.051 319.502 233.274 319.87 233.025 320.575C229.085 331.778 216.688 337.658 205.391 333.684C204.68 333.434 203.902 333.802 203.654 334.508C203.406 335.213 203.782 335.987 204.493 336.237C215.791 340.211 221.777 352.557 217.837 363.758C217.589 364.463 217.965 365.237 218.676 365.487C219.387 365.738 220.164 365.369 220.412 364.664C224.352 353.462 236.749 347.582 248.046 351.555C248.758 351.806 249.535 351.437 249.783 350.732C250.031 350.027 249.655 349.252 248.944 349.002Z" fill="#F8F8FF"/>
<path d="M224.406 341.806C228.679 340.121 232.397 337.108 234.873 333.07C234.065 329.331 234.244 325.338 235.6 321.48C235.848 320.775 235.473 320.001 234.762 319.751C234.051 319.501 233.273 319.869 233.025 320.574C230.486 327.795 224.43 332.799 217.422 334.383C216.475 334.597 215.511 334.748 214.535 334.835C214.499 334.837 214.463 334.84 214.428 334.844C213.474 334.923 212.509 334.94 211.541 334.892C211.474 334.889 211.406 334.884 211.34 334.879C210.93 334.855 210.52 334.818 210.11 334.77C210.027 334.761 209.945 334.753 209.863 334.743C209.404 334.684 208.944 334.611 208.485 334.521C208.406 334.505 208.327 334.486 208.248 334.47C207.872 334.393 207.494 334.304 207.119 334.205C206.99 334.171 206.861 334.137 206.733 334.101C206.302 333.98 205.87 333.848 205.441 333.698C205.425 333.692 205.408 333.688 205.391 333.682C204.68 333.431 203.903 333.8 203.655 334.505C203.407 335.211 203.782 335.985 204.493 336.235C204.51 336.241 204.526 336.247 204.543 336.253C204.971 336.405 205.389 336.572 205.802 336.747C205.925 336.8 206.047 336.854 206.168 336.908C206.523 337.067 206.873 337.233 207.215 337.408C207.287 337.445 207.36 337.479 207.431 337.516C207.845 337.734 208.25 337.965 208.645 338.206C208.716 338.25 208.785 338.295 208.854 338.339C209.204 338.559 209.547 338.786 209.881 339.024C209.936 339.063 209.993 339.101 210.047 339.141C210.833 339.71 211.574 340.327 212.268 340.986C212.294 341.011 212.32 341.036 212.346 341.06C213.052 341.738 213.71 342.459 214.315 343.219C218.788 348.843 220.378 356.535 217.839 363.755C217.591 364.461 217.966 365.235 218.677 365.485C219.388 365.735 220.165 365.366 220.414 364.661C221.77 360.803 224.13 357.578 227.102 355.167C227.697 350.472 226.684 345.795 224.406 341.806Z" fill="white"/>
<path d="M244.784 408.008C249.588 409.697 254.84 407.206 256.515 402.443C258.19 397.681 255.654 392.45 250.85 390.761C246.047 389.071 240.795 391.563 239.12 396.325C237.445 401.088 239.981 406.318 244.784 408.008Z" fill="#F8F8FF"/>
<path d="M51.9799 452.668C56.7834 454.358 62.0354 451.867 63.7105 447.104C65.3856 442.341 62.8495 437.111 58.0459 435.421C53.2424 433.732 47.9905 436.223 46.3154 440.986C44.6403 445.748 47.1764 450.979 51.9799 452.668Z" fill="#F8F8FF"/>
<path d="M187.121 439.27C152.02 412.301 136.368 365.08 151.719 321.435C159.403 299.587 173.742 281.361 193.183 268.731C195.728 267.078 196.802 263.912 195.792 261.05C194.781 258.189 191.944 256.367 188.91 256.636C165.343 258.704 142.942 267.336 124.128 281.597C104.814 296.237 90.3497 316.079 82.2961 338.976C59.5634 403.61 94.1042 474.847 159.293 497.775C182.388 505.898 207.086 507.162 230.719 501.431C253.741 495.847 274.57 483.973 290.953 467.09C293.063 464.916 293.404 461.588 291.782 459.017C290.158 456.447 286.989 455.294 284.093 456.221C261.965 463.31 238.62 462.96 216.583 455.21C210.488 453.066 204.709 450.42 199.279 447.337" fill="#E2E2E2"/>
<path d="M245.271 494.574C221.638 500.305 196.94 499.041 173.845 490.918C108.656 467.99 74.1156 396.753 96.8483 332.119C104.902 309.222 119.367 289.38 138.68 274.74C143.489 271.095 148.533 267.82 153.771 264.926C143.229 269.088 133.255 274.678 124.127 281.597C104.813 296.238 90.3489 316.079 82.2953 338.977C59.5626 403.611 94.1034 474.848 159.292 497.776C182.387 505.898 207.085 507.162 230.718 501.431C241.677 498.773 252.138 494.687 261.86 489.316C256.486 491.437 250.945 493.198 245.271 494.574Z" fill="#D0D0D0"/>
<path d="M207.67 396.777C210.523 397.781 213.642 396.301 214.637 393.472C215.632 390.643 214.126 387.536 211.273 386.533C208.419 385.529 205.3 387.009 204.305 389.838C203.31 392.667 204.816 395.774 207.67 396.777Z" fill="#C4C4C4"/>
<path d="M51.1153 410.823C53.9685 411.826 57.0881 410.346 58.083 407.517C59.078 404.689 57.5716 401.582 54.7184 400.578C51.8652 399.575 48.7457 401.055 47.7507 403.883C46.7557 406.712 48.2621 409.819 51.1153 410.823Z" fill="#C4C4C4"/>
<path d="M268.642 329.263C271.495 330.267 274.615 328.787 275.61 325.958C276.605 323.129 275.098 320.022 272.245 319.019C269.392 318.015 266.272 319.495 265.277 322.324C264.282 325.153 265.789 328.26 268.642 329.263Z" fill="#C4C4C4"/>
<path d="M769.508 575.25C769.508 547.727 761.781 520.757 747.208 497.409C732.634 474.062 711.799 455.274 687.073 443.184C662.347 431.095 634.724 426.19 607.348 429.027C579.971 431.864 553.941 442.329 532.22 459.231C513.731 437.838 489.875 421.76 463.107 412.652C436.34 403.544 407.628 401.735 379.929 407.411C352.23 413.088 326.544 426.045 305.517 444.948C284.49 463.851 268.881 488.017 260.298 514.958C245.937 502.192 228.69 493.105 210.04 488.479C191.39 483.852 171.896 483.826 153.233 488.4C134.571 492.975 117.299 502.015 102.903 514.741C88.5069 527.468 77.4176 543.501 70.5888 561.462C63.76 579.423 61.3961 598.773 63.7004 617.85C66.0046 636.926 72.9081 655.157 83.817 670.975C94.726 686.793 109.314 699.725 126.326 708.658C143.339 717.591 162.266 722.258 181.481 722.257C183.325 722.257 185.157 722.209 186.981 722.126C188.863 722.207 190.754 722.257 192.657 722.257H637.976C670.018 722.255 700.912 710.325 724.639 688.791C748.366 667.257 763.227 637.662 766.327 605.77C768.445 595.735 769.511 585.507 769.508 575.25V575.25Z" fill="#F1F0F0"/>
<path d="M774.508 557.25C774.508 529.727 766.781 502.757 752.208 479.409C737.634 456.062 716.799 437.274 692.073 425.184C667.347 413.095 639.724 408.19 612.348 411.027C584.971 413.864 558.941 424.329 537.22 441.231C518.731 419.838 494.875 403.76 468.107 394.652C441.34 385.544 412.628 383.735 384.929 389.411C357.23 395.088 331.544 408.045 310.517 426.948C289.49 445.851 273.881 470.017 265.298 496.958C250.937 484.192 233.69 475.105 215.04 470.479C196.39 465.852 176.896 465.826 158.233 470.4C139.571 474.975 122.299 484.015 107.903 496.741C93.5069 509.468 82.4176 525.501 75.5888 543.462C68.76 561.423 66.3961 580.773 68.7004 599.85C71.0046 618.926 77.9081 637.157 88.817 652.975C99.726 668.793 114.314 681.725 131.326 690.658C148.339 699.591 167.266 704.258 186.481 704.257C188.325 704.257 190.157 704.209 191.981 704.126C193.863 704.207 195.754 704.257 197.657 704.257H642.976C675.018 704.255 705.912 692.325 729.639 670.791C753.366 649.257 768.227 619.662 771.327 587.77C773.445 577.735 774.511 567.507 774.508 557.25V557.25Z" stroke="#3F3D56" stroke-miterlimit="10"/>
<path d="M697.222 530.702L681.13 563.503C681.13 563.503 652.042 559.79 663.801 598.161C663.801 598.161 660.707 627.249 654.518 633.438C648.329 639.627 659.469 680.474 681.749 668.715C694.282 662.101 695.065 654.507 693.352 649.129C690.693 641.109 690.174 632.533 691.847 624.25C694.083 613.781 698.111 600.391 705.267 588.878C719.502 565.979 733.118 543.699 733.118 543.699L697.222 530.702Z" fill="#A0616A"/>
<path d="M656.994 328.942C656.994 328.942 621.717 320.278 609.958 326.467C598.199 332.655 563.541 333.274 563.541 333.274C563.541 333.274 534.453 380.31 541.26 404.447C548.068 428.584 576.537 443.438 576.537 443.438L672.466 444.056L687.938 380.929C687.938 380.929 680.512 337.607 674.323 335.131C668.134 332.655 656.994 328.942 656.994 328.942Z" fill="#646464"/>
<path d="M625.43 165.554C654.483 165.554 678.036 142.002 678.036 112.948C678.036 83.8948 654.483 60.3423 625.43 60.3423C596.376 60.3423 572.824 83.8948 572.824 112.948C572.824 142.002 596.376 165.554 625.43 165.554Z" fill="#2F2E41"/>
<path d="M592.629 158.127C592.629 158.127 598.817 184.121 589.534 187.215C580.251 190.31 572.205 202.688 572.205 202.688L585.821 225.587L632.238 237.346L646.472 223.73L656.994 194.642L646.472 187.215C646.472 187.215 636.57 190.31 635.951 180.408C635.655 172.975 635.862 165.532 636.57 158.127L592.629 158.127Z" fill="#A0616A"/>
<path opacity="0.1" d="M592.629 158.127C592.629 158.127 598.817 184.121 589.534 187.215C580.251 190.31 572.205 202.688 572.205 202.688L585.821 225.587L632.238 237.346L646.472 223.73L656.994 194.642L646.472 187.215C646.472 187.215 636.57 190.31 635.951 180.408C635.655 172.975 635.862 165.532 636.57 158.127L592.629 158.127Z" fill="black"/>
<path d="M616.456 175.147C637.306 175.147 654.209 158.245 654.209 137.395C654.209 116.544 637.306 99.6421 616.456 99.6421C595.606 99.6421 578.704 116.544 578.704 137.395C578.704 158.245 595.606 175.147 616.456 175.147Z" fill="#A0616A"/>
<path d="M614.29 223.73L578.394 190.929C578.394 190.929 562.303 204.544 560.446 204.544C558.59 204.544 534.453 211.971 533.834 215.066C533.215 218.16 554.876 250.961 554.876 250.961C554.876 250.961 549.925 275.098 554.876 285.619C559.827 296.141 556.114 341.32 556.114 341.32C556.114 341.32 588.915 329.561 606.244 335.131C623.573 340.701 674.323 335.131 674.323 335.131C674.323 335.131 681.75 287.476 678.655 281.287C675.561 275.098 674.942 239.821 674.942 239.821L701.554 210.733C701.554 210.733 695.984 188.453 674.942 187.215C653.899 185.978 640.902 184.74 640.902 184.74L614.29 223.73Z" fill="#E93082"/>
<path d="M572.205 375.978C572.205 375.978 502.889 344.415 475.039 329.561C447.188 314.708 404.485 326.467 418.1 359.887C431.716 393.307 507.84 426.109 507.84 426.109C507.84 426.109 532.596 444.676 547.449 444.057C562.303 443.438 583.655 443.747 583.655 443.747L572.205 375.978Z" fill="#646464"/>
<path d="M679.274 380.311C679.274 380.311 803.672 381.548 795.626 427.965C787.58 474.382 739.925 551.744 731.261 553.601C722.596 555.458 691.033 541.842 691.033 537.51C691.033 533.177 721.359 453.34 721.359 453.34L647.091 430.441L679.274 380.311Z" fill="#646464"/>
<path d="M702.792 241.678C702.792 241.678 710.219 312.851 706.505 323.991C702.792 335.131 689.795 365.457 673.085 380.311C656.375 395.164 632.857 470.05 619.86 434.154C606.863 398.258 640.902 378.454 640.902 378.454L675.023 330.448L675.344 252.322L702.792 241.678Z" fill="#A0616A"/>
<path d="M563.541 390.832C563.541 390.832 624.811 412.493 631.619 409.398C638.427 406.304 653.28 417.444 653.28 417.444C660.145 415.975 667.231 415.874 674.134 417.149C681.038 418.423 687.621 421.047 693.508 424.871C713.313 437.868 717.645 452.721 713.313 453.34C708.981 453.959 693.508 447.151 693.508 447.151C693.508 447.151 669.99 442.2 655.756 446.532C641.521 450.864 622.969 441.731 622.969 441.731L547.449 424.871L563.541 390.832Z" fill="#A0616A"/>
<path opacity="0.1" d="M563.541 390.832C563.541 390.832 624.811 412.493 631.619 409.398C638.427 406.304 653.28 417.444 653.28 417.444C660.145 415.975 667.231 415.874 674.134 417.149C681.038 418.423 687.621 421.047 693.508 424.871C713.313 437.868 717.645 452.721 713.313 453.34C708.981 453.959 693.508 447.151 693.508 447.151C693.508 447.151 669.99 442.2 655.756 446.532C641.521 450.864 622.969 441.731 622.969 441.731L547.449 424.871L563.541 390.832Z" fill="black"/>
<path d="M533.834 268.291C533.834 268.291 534.453 345.034 543.736 354.317C553.019 363.6 562.922 375.978 572.205 381.548C581.489 387.118 586.44 400.115 586.44 400.115C586.44 400.115 631 465.099 631.619 435.392C632.238 405.685 608.72 382.167 608.72 382.167L604.117 377.784C594.047 368.308 584.942 357.856 576.935 346.582C575.108 343.894 572.887 341.494 570.348 339.464C562.303 333.275 560.446 265.196 560.446 265.196L533.834 268.291Z" fill="#A0616A"/>
<path d="M688.557 203.307L701.554 210.733C701.554 210.733 706.505 243.535 708.981 247.867C711.456 252.199 678.655 263.339 673.704 260.245C668.752 257.15 666.277 226.825 666.277 226.825L688.557 203.307Z" fill="#E93082"/>
<path d="M541.879 214.447H533.834C533.834 214.447 525.169 223.73 525.788 243.535C526.407 263.339 518.361 275.717 523.312 277.574C528.264 279.431 552.96 269.603 552.68 272.351C552.4 275.098 565.397 270.147 565.397 270.147L556.733 237.346L541.879 214.447Z" fill="#E93082"/>
<path opacity="0.1" d="M479.681 341.32C479.681 341.32 517.434 357.412 527.955 359.887C538.476 362.363 572.481 391.331 572.481 391.331L549.269 426.578C549.269 426.578 525.48 423.633 512.483 421.158C499.486 418.682 422.124 367.314 435.121 358.649C448.118 349.985 479.681 341.32 479.681 341.32Z" fill="black"/>
<path d="M471.944 341.32C471.944 341.32 509.697 357.412 520.218 359.887C530.739 362.363 572.205 390.832 572.205 390.832L551.782 430.441C551.782 430.441 517.742 423.633 504.746 421.158C491.749 418.682 414.387 367.314 427.384 358.649C440.381 349.985 471.944 341.32 471.944 341.32Z" fill="#646464"/>
<path d="M635.642 129.968C664.695 129.968 688.248 106.415 688.248 77.3619C688.248 48.3084 664.695 24.7559 635.642 24.7559C606.588 24.7559 583.036 48.3084 583.036 77.3619C583.036 106.415 606.588 129.968 635.642 129.968Z" fill="#2F2E41"/>
<path d="M650.495 49.5115C664.168 49.5115 675.251 38.428 675.251 24.7558C675.251 11.0835 664.168 0 650.495 0C636.823 0 625.74 11.0835 625.74 24.7558C625.74 38.428 636.823 49.5115 650.495 49.5115Z" fill="#2F2E41"/>
<path d="M0 722.128H881" stroke="#3F3D56" stroke-miterlimit="10"/>
</g>
<defs>
<clipPath id="clip0">
<rect width="881" height="722.628" fill="white"/>
</clipPath>
</defs>
</svg>
